<svg width="39" height="39" viewBox="0 0 39 39" fill="none" xmlns="http://www.w3.org/2000/svg">
<path d="M29.25 8.12452H30.875V9.74952C30.875 10.1805 31.0462 10.5938 31.351 10.8986C31.6557 11.2033 32.069 11.3745 32.5 11.3745C32.931 11.3745 33.3443 11.2033 33.6491 10.8986C33.9538 10.5938 34.125 10.1805 34.125 9.74952V8.12452H35.75C36.181 8.12452 36.5943 7.95331 36.8991 7.64857C37.2038 7.34382 37.375 6.9305 37.375 6.49952C37.375 6.06854 37.2038 5.65522 36.8991 5.35047C36.5943 5.04572 36.181 4.87452 35.75 4.87452H34.125V3.24952C34.125 2.81854 33.9538 2.40522 33.6491 2.10047C33.3443 1.79572 32.931 1.62452 32.5 1.62452C32.069 1.62452 31.6557 1.79572 31.351 2.10047C31.0462 2.40522 30.875 2.81854 30.875 3.24952V4.87452H29.25C28.819 4.87452 28.4057 5.04572 28.101 5.35047C27.7962 5.65522 27.625 6.06854 27.625 6.49952C27.625 6.9305 27.7962 7.34382 28.101 7.64857C28.4057 7.95331 28.819 8.12452 29.25 8.12452ZM11.375 11.3745V27.6245C11.375 28.0555 11.5462 28.4688 11.851 28.7736C12.1557 29.0783 12.569 29.2495 13 29.2495C13.431 29.2495 13.8443 29.0783 14.1491 28.7736C14.4538 28.4688 14.625 28.0555 14.625 27.6245V11.3745C14.625 10.9435 14.4538 10.5302 14.1491 10.2255C13.8443 9.92072 13.431 9.74952 13 9.74952C12.569 9.74952 12.1557 9.92072 11.851 10.2255C11.5462 10.5302 11.375 10.9435 11.375 11.3745ZM35.1 14.6245C34.8909 14.6672 34.6922 14.7506 34.5153 14.87C34.3384 14.9895 34.1867 15.1426 34.069 15.3207C33.9513 15.4988 33.8698 15.6983 33.8293 15.9078C33.7887 16.1174 33.7898 16.3329 33.8325 16.542C34.467 19.6234 34.0909 22.8271 32.7602 25.6778C31.4295 28.5285 29.215 30.8741 26.4455 32.3664C23.676 33.8587 20.4991 34.4182 17.3864 33.9618C14.2737 33.5054 11.3911 32.0575 9.16658 29.833C6.94204 27.6084 5.49411 24.7258 5.03772 21.6131C4.58134 18.5005 5.14083 15.3236 6.63315 12.554C8.12546 9.78454 10.471 7.57006 13.3217 6.23933C16.1724 4.9086 19.3762 4.53255 22.4575 5.16702C22.8885 5.25321 23.3361 5.16467 23.7017 4.92088C24.0674 4.67708 24.3213 4.298 24.4075 3.86702C24.4937 3.43604 24.4052 2.98847 24.1614 2.62278C23.9176 2.25708 23.5385 2.00321 23.1075 1.91702C21.9183 1.69545 20.7094 1.59743 19.5 1.62452C15.9647 1.62452 12.5087 2.67287 9.56919 4.637C6.62966 6.60113 4.33858 9.39282 2.98566 12.6591C1.63275 15.9253 1.27876 19.5193 1.96847 22.9868C2.65818 26.4542 4.36061 29.6392 6.86047 32.1391C9.36034 34.6389 12.5454 36.3413 16.0128 37.0311C19.4802 37.7208 23.0742 37.3668 26.3405 36.0139C29.6067 34.6609 32.3984 32.3699 34.3625 29.4303C36.3267 26.4908 37.375 23.0349 37.375 19.4995C37.3785 18.2988 37.2587 17.1008 37.0175 15.9245C36.9786 15.7124 36.8979 15.5102 36.78 15.3297C36.6622 15.1491 36.5096 14.9938 36.3311 14.8728C36.1526 14.7518 35.9519 14.6676 35.7405 14.6249C35.5291 14.5823 35.3114 14.5822 35.1 14.6245ZM17.875 14.6245V16.2495C17.8822 17.4521 18.3336 18.6096 19.1425 19.4995C18.3336 20.3894 17.8822 21.5469 17.875 22.7495V24.3745C17.875 25.6674 18.3886 26.9074 19.3029 27.8217C20.2171 28.7359 21.4571 29.2495 22.75 29.2495H24.375C25.6679 29.2495 26.9079 28.7359 27.8222 27.8217C28.7364 26.9074 29.25 25.6674 29.25 24.3745V22.7495C29.2428 21.5469 28.7914 20.3894 27.9825 19.4995C28.7914 18.6096 29.2428 17.4521 29.25 16.2495V14.6245C29.25 13.3316 28.7364 12.0916 27.8222 11.1774C26.9079 10.2631 25.6679 9.74952 24.375 9.74952H22.75C21.4571 9.74952 20.2171 10.2631 19.3029 11.1774C18.3886 12.0916 17.875 13.3316 17.875 14.6245ZM26 24.3745C26 24.8055 25.8288 25.2188 25.5241 25.5236C25.2193 25.8283 24.806 25.9995 24.375 25.9995H22.75C22.319 25.9995 21.9057 25.8283 21.601 25.5236C21.2962 25.2188 21.125 24.8055 21.125 24.3745V22.7495C21.125 22.3185 21.2962 21.9052 21.601 21.6005C21.9057 21.2957 22.319 21.1245 22.75 21.1245H24.375C24.806 21.1245 25.2193 21.2957 25.5241 21.6005C25.8288 21.9052 26 22.3185 26 22.7495V24.3745ZM26 14.6245V16.2495C26 16.6805 25.8288 17.0938 25.5241 17.3986C25.2193 17.7033 24.806 17.8745 24.375 17.8745H22.75C22.319 17.8745 21.9057 17.7033 21.601 17.3986C21.2962 17.0938 21.125 16.6805 21.125 16.2495V14.6245C21.125 14.1935 21.2962 13.7802 21.601 13.4755C21.9057 13.1707 22.319 12.9995 22.75 12.9995H24.375C24.806 12.9995 25.2193 13.1707 25.5241 13.4755C25.8288 13.7802 26 14.1935 26 14.6245Z" fill="#1E1E1E"/>
</svg>
