<svg width="112" height="112" viewBox="0 0 112 112" fill="none" xmlns="http://www.w3.org/2000/svg">
<g clip-path="url(#clip0_26_302)">
<path d="M51.7489 50.4605C50.5581 43.5112 46.7555 40.396 41.8295 40.396C36.2071 40.396 31.1611 45.9872 31.1611 55.7937C31.1611 65.5709 36.1343 71.1913 41.8295 71.1913C47.2856 71.1913 50.8985 67.2347 51.7489 61.5237L47.1971 62.2024C46.1342 65.5856 44.4327 65.5856 41.9022 65.5856C38.6701 65.5856 35.7235 62.2045 35.7235 55.7937C35.7235 49.5585 38.639 46.0018 41.9334 46.0018C44.6028 46.0018 45.7939 46.3868 47.1971 49.502L51.7489 50.4605Z" fill="#113162"/>
<path d="M92.9084 69.1296C92.9826 69.5459 92.9826 69.702 93.0565 69.7541C93.1303 69.8061 94.2388 70.2744 94.2757 69.8582C94.6449 65.4871 103.069 60.9599 103.624 64.7065C104.362 63.0934 105.139 61.5323 105.434 59.5549C105.425 59.4247 105.452 59.2947 105.508 59.1906C104.806 55.8083 90.7657 59.2427 92.9084 69.1296ZM105.678 54.5594C105.563 52.5979 105.174 50.6878 104.532 48.9394C100.409 41.9144 84.5583 49.1475 89.9526 67.2043C90.1007 67.7767 90.3591 68.0889 90.433 67.9328C90.5068 67.7767 91.061 67.7767 90.9872 67.2563C89.5464 53.0503 102.146 49.6679 105.678 54.5594ZM101.185 43.8919C101.296 43.9439 102.035 44.4122 101.85 44.152C101.663 43.8376 101.438 43.5732 101.185 43.3715C88.438 33.0162 78.4248 57.5255 88.1422 68.6092C88.354 68.8918 88.5897 69.1365 88.8441 69.3378C88.9553 69.3378 91.1349 71.5233 89.5464 67.9848C83.5091 54.6114 90.6918 36.7108 101.185 43.8919Z" fill="#878C9F"/>
<path d="M104.51 48.8351C103.624 52.5297 95.495 46.2332 94.2388 42.6948C94.1281 42.3305 94.0169 42.2264 93.943 42.2264C93.8692 42.2264 93.7954 42.3825 93.7215 42.7988C92.9827 47.9504 101.074 57.265 105.693 54.8713C105.698 54.7134 105.686 54.5552 105.656 54.403C105.538 52.4588 105.149 50.5665 104.51 48.8351ZM91.268 44.2038C91.3419 43.6834 91.3788 43.4753 91.3049 43.3192C91.2311 43.1631 90.9726 43.5273 90.7507 43.9957C85.6891 53.7785 96.7366 68.6611 103.904 64.8103C104.683 63.1531 105.223 61.2967 105.493 59.3465C101.592 63.5615 90.0265 53.5184 91.268 44.2038ZM89.938 42.5386C90.2703 42.1223 90.5661 41.7581 90.4184 41.7061C90.1267 41.8069 89.8512 41.9834 89.6053 42.2264C81.7872 48.5749 83.6345 68.1927 93.8546 71.7312V71.7832C94.1492 71.8265 94.4454 71.8439 94.7411 71.8353C95.9482 71.8382 97.1472 71.5568 98.2881 71.0027C99.171 70.5503 100.014 69.9566 100.801 69.2335C100.912 69.1294 100.985 69.0253 101.096 68.9212C92.155 72.824 81.8833 53.3623 89.938 42.5386Z" fill="#113162"/>
<path d="M28.5617 38H27.5879V73.4654H28.5617V38Z" fill="#113162"/>
<path d="M55.9555 38H54.9817V73.4654H55.9555V38Z" fill="#113162"/>
<path d="M81.1376 38H80.1638V73.4654H81.1376V38Z" fill="#113162"/>
<path d="M7 70.8512H16.9351C21.7156 70.8512 24.2618 67.3384 24.2618 62.5669C24.2618 58.132 22.6872 55.4535 20.2657 55.2925V54.9998C22.4793 54.2972 23.4304 52.8571 23.4304 48.5597C23.4304 43.5114 21.0609 40.8755 16.3635 40.8755H7V70.8512ZM11.5 65.5575V58.3686H16.114C18.2757 58.3686 19.6163 59.4639 19.6163 61.9375C19.6163 64.1915 18.5251 65.5575 16.0101 65.5575H11.5ZM11.5 53.0967V45.9983H15.7607C17.7561 45.9983 18.8888 46.6266 18.8888 49.6135C18.8888 52.6004 17.517 53.0967 15.6776 53.0967H11.5Z" fill="#113162"/>
<path d="M72.4755 49.5254L76.6854 50.7001C76.6229 45.3578 73.1104 40.396 68.3714 40.396C63.705 40.396 59.6055 44.0258 59.6266 49.4707C59.616 53.8909 61.8297 56.423 65.4254 57.6379L68.5272 58.7996C70.8448 59.59 72.1334 60.5267 72.144 62.5465C72.1334 64.7421 70.6578 66.235 68.3714 66.235C66.0332 66.235 63.4644 64.4841 63.3188 61.4836L59.0654 60.525C59.1794 67.0091 63.2583 71.5481 68.4234 71.5481C73.6196 71.5481 76.6753 68.0499 76.6854 62.5612C76.6753 57.5701 74.0043 54.9209 70.3044 53.75L68.3921 53.106C66.5424 52.5058 64.2094 51.1978 64.2406 49.0462C64.2406 47.1142 66.1683 45.6679 68.3714 45.6679C70.5227 45.6679 72.3091 47.169 72.4755 49.5254Z" fill="#113162"/>
</g>
<defs>
<clipPath id="clip0_26_302">
<rect width="99" height="36" fill="white" transform="translate(7 38)"/>
</clipPath>
</defs>
</svg>
