<svg width="79" height="18" viewBox="0 0 79 18" fill="none" xmlns="http://www.w3.org/2000/svg">
<path d="M11.6357 12.4531C11.6357 12.9922 11.5615 13.4805 11.4131 13.918C11.2646 14.3555 11.0576 14.7422 10.792 15.0781C10.5342 15.4141 10.2217 15.7031 9.85449 15.9453C9.49512 16.1875 9.09668 16.3867 8.65918 16.543C8.22168 16.6992 7.75293 16.8164 7.25293 16.8945C6.76074 16.9648 6.20996 17 5.60059 17H1.56934C1.31152 17 1.09277 16.9258 0.913086 16.7773C0.741211 16.6211 0.655273 16.3711 0.655273 16.0273V2.80859C0.655273 2.46484 0.741211 2.21875 0.913086 2.07031C1.09277 1.91406 1.31152 1.83594 1.56934 1.83594H5.37793C6.30762 1.83594 7.09277 1.91406 7.7334 2.07031C8.38184 2.22656 8.9248 2.46484 9.3623 2.78516C9.80762 3.09766 10.1475 3.49609 10.3818 3.98047C10.6162 4.46484 10.7334 5.03516 10.7334 5.69141C10.7334 6.05859 10.6865 6.40625 10.5928 6.73438C10.499 7.05469 10.3623 7.34766 10.1826 7.61328C10.0029 7.87891 9.78027 8.11328 9.51465 8.31641C9.25684 8.51953 8.95996 8.68359 8.62402 8.80859C9.05371 8.88672 9.44824 9.02344 9.80762 9.21875C10.1748 9.41406 10.4912 9.66797 10.7568 9.98047C11.0303 10.2852 11.2451 10.6445 11.4014 11.0586C11.5576 11.4727 11.6357 11.9375 11.6357 12.4531ZM7.65137 6.06641C7.65137 5.76172 7.60449 5.48828 7.51074 5.24609C7.41699 5.00391 7.27637 4.80469 7.08887 4.64844C6.90137 4.48438 6.66309 4.35938 6.37402 4.27344C6.09277 4.1875 5.71387 4.14453 5.2373 4.14453H3.67871V8.08203H5.40137C5.84668 8.08203 6.20215 8.03125 6.46777 7.92969C6.7334 7.82031 6.95215 7.67578 7.12402 7.49609C7.30371 7.30859 7.43652 7.09375 7.52246 6.85156C7.6084 6.60156 7.65137 6.33984 7.65137 6.06641ZM8.43652 12.5586C8.43652 12.207 8.37793 11.8945 8.26074 11.6211C8.14355 11.3398 7.97168 11.1055 7.74512 10.918C7.51855 10.7305 7.22949 10.5859 6.87793 10.4844C6.52637 10.3828 6.06934 10.332 5.50684 10.332H3.67871V14.6445H5.90527C6.33496 14.6445 6.69434 14.6016 6.9834 14.5156C7.28027 14.4219 7.53418 14.2891 7.74512 14.1172C7.96387 13.9375 8.13184 13.7188 8.24902 13.4609C8.37402 13.1953 8.43652 12.8945 8.43652 12.5586ZM23.5889 11.0703C23.5889 11.4297 23.5068 11.6953 23.3428 11.8672C23.1865 12.0391 22.9678 12.125 22.6865 12.125H16.3232C16.3232 12.5703 16.374 12.9766 16.4756 13.3438C16.585 13.7031 16.7529 14.0117 16.9795 14.2695C17.2139 14.5195 17.5107 14.7109 17.8701 14.8438C18.2373 14.9766 18.6748 15.043 19.1826 15.043C19.6982 15.043 20.1514 15.0078 20.542 14.9375C20.9326 14.8594 21.2686 14.7773 21.5498 14.6914C21.8389 14.5977 22.0771 14.5156 22.2646 14.4453C22.4521 14.3672 22.6045 14.3281 22.7217 14.3281C22.792 14.3281 22.8506 14.3438 22.8975 14.375C22.9443 14.3984 22.9834 14.4453 23.0146 14.5156C23.0459 14.5859 23.0654 14.6875 23.0732 14.8203C23.0889 14.9453 23.0967 15.1055 23.0967 15.3008C23.0967 15.4727 23.0928 15.6211 23.085 15.7461C23.0771 15.8633 23.0654 15.9648 23.0498 16.0508C23.0342 16.1367 23.0107 16.2109 22.9795 16.2734C22.9482 16.3281 22.9053 16.3828 22.8506 16.4375C22.8037 16.4922 22.667 16.5664 22.4404 16.6602C22.2139 16.7539 21.9248 16.8477 21.5732 16.9414C21.2217 17.0273 20.8193 17.1016 20.3662 17.1641C19.9131 17.2344 19.4287 17.2695 18.9131 17.2695C17.9834 17.2695 17.167 17.1523 16.4639 16.918C15.7686 16.6836 15.1865 16.3281 14.7178 15.8516C14.249 15.375 13.8975 14.7734 13.6631 14.0469C13.4365 13.3203 13.3232 12.4688 13.3232 11.4922C13.3232 10.5625 13.4443 9.72656 13.6865 8.98438C13.9287 8.23438 14.2803 7.60156 14.7412 7.08594C15.2021 6.5625 15.7607 6.16406 16.417 5.89062C17.0811 5.61719 17.8271 5.48047 18.6553 5.48047C19.5303 5.48047 20.2764 5.60938 20.8936 5.86719C21.5186 6.125 22.0303 6.48438 22.4287 6.94531C22.8271 7.39844 23.1201 7.9375 23.3076 8.5625C23.4951 9.1875 23.5889 9.86719 23.5889 10.6016V11.0703ZM20.7295 10.2266C20.7529 9.39844 20.585 8.75 20.2256 8.28125C19.874 7.80469 19.3271 7.56641 18.585 7.56641C18.21 7.56641 17.8818 7.63672 17.6006 7.77734C17.3271 7.91797 17.0967 8.10938 16.9092 8.35156C16.7295 8.58594 16.5889 8.86719 16.4873 9.19531C16.3936 9.51562 16.3389 9.85938 16.3232 10.2266H20.7295ZM32.0498 15.5703C32.0498 15.9141 32.0264 16.1797 31.9795 16.3672C31.9404 16.5469 31.8857 16.6758 31.8154 16.7539C31.7451 16.8242 31.6396 16.8906 31.499 16.9531C31.3662 17.0078 31.2061 17.0547 31.0186 17.0938C30.8389 17.1406 30.6396 17.1758 30.4209 17.1992C30.21 17.2227 29.9951 17.2344 29.7764 17.2344C29.1904 17.2344 28.6826 17.1602 28.2529 17.0117C27.8232 16.8633 27.4678 16.6367 27.1865 16.332C26.9053 16.0195 26.6982 15.6289 26.5654 15.1602C26.4326 14.6914 26.3662 14.1367 26.3662 13.4961V8.14062H25.1123C24.9639 8.14062 24.8506 8.05078 24.7725 7.87109C24.6943 7.68359 24.6553 7.375 24.6553 6.94531C24.6553 6.71875 24.6631 6.52734 24.6787 6.37109C24.7021 6.21484 24.7334 6.09375 24.7725 6.00781C24.8115 5.91406 24.8584 5.84766 24.9131 5.80859C24.9756 5.76953 25.0459 5.75 25.124 5.75H26.3662V3.41797C26.3662 3.33984 26.3857 3.26953 26.4248 3.20703C26.4717 3.14453 26.5498 3.09375 26.6592 3.05469C26.7764 3.00781 26.9287 2.97656 27.1162 2.96094C27.3115 2.9375 27.5498 2.92578 27.8311 2.92578C28.1201 2.92578 28.3584 2.9375 28.5459 2.96094C28.7412 2.97656 28.8936 3.00781 29.0029 3.05469C29.1123 3.09375 29.1904 3.14453 29.2373 3.20703C29.2842 3.26953 29.3076 3.33984 29.3076 3.41797V5.75H31.5811C31.6592 5.75 31.7256 5.76953 31.7803 5.80859C31.8428 5.84766 31.8936 5.91406 31.9326 6.00781C31.9717 6.09375 31.999 6.21484 32.0146 6.37109C32.0381 6.52734 32.0498 6.71875 32.0498 6.94531C32.0498 7.375 32.0107 7.68359 31.9326 7.87109C31.8545 8.05078 31.7412 8.14062 31.5928 8.14062H29.3076V13.0508C29.3076 13.6211 29.3975 14.0508 29.5771 14.3398C29.7568 14.6211 30.0771 14.7617 30.5381 14.7617C30.6943 14.7617 30.835 14.75 30.96 14.7266C31.085 14.6953 31.1943 14.6641 31.2881 14.6328C31.3896 14.5938 31.4717 14.5625 31.5342 14.5391C31.6045 14.5078 31.667 14.4922 31.7217 14.4922C31.7686 14.4922 31.8115 14.5078 31.8506 14.5391C31.8975 14.5625 31.9326 14.6172 31.9561 14.7031C31.9795 14.7812 31.999 14.8906 32.0146 15.0312C32.0381 15.1719 32.0498 15.3516 32.0498 15.5703Z" fill="black"/>
<path d="M43.0501 0.199999H47.3221V17H43.0501V10.544H38.3221V17H34.0261V0.199999H38.3221V6.416H43.0501V0.199999ZM61.243 15.752C60.011 16.824 58.419 17.36 56.467 17.36C54.515 17.36 52.915 16.824 51.667 15.752C50.435 14.68 49.819 13.256 49.819 11.48V0.199999H54.115V11.072C54.115 12.48 54.899 13.184 56.467 13.184C58.035 13.184 58.819 12.48 58.819 11.072V0.199999H63.115V11.48C63.115 13.256 62.491 14.68 61.243 15.752ZM76.2044 8.312C77.6124 9.144 78.3164 10.4 78.3164 12.08C78.3164 13.568 77.8044 14.76 76.7804 15.656C75.7564 16.552 74.3884 17 72.6764 17H65.5964V0.199999H72.2204C73.9004 0.199999 75.2444 0.631999 76.2524 1.496C77.2604 2.344 77.7644 3.504 77.7644 4.976C77.7644 6.384 77.2444 7.496 76.2044 8.312ZM72.1004 4.04H69.8924V6.68H72.1004C72.4844 6.68 72.8044 6.568 73.0604 6.344C73.3324 6.104 73.4684 5.776 73.4684 5.36C73.4684 4.96 73.3404 4.64 73.0844 4.4C72.8284 4.16 72.5004 4.04 72.1004 4.04ZM72.5564 13.16C72.9884 13.16 73.3404 13.032 73.6124 12.776C73.8844 12.504 74.0204 12.16 74.0204 11.744C74.0204 11.312 73.8844 10.968 73.6124 10.712C73.3404 10.456 72.9884 10.328 72.5564 10.328H69.8924V13.16H72.5564Z" fill="#FB7800"/>
</svg>
